<?xml version="1.0" encoding="UTF-8"?>
<svg width="189px" height="191px" viewBox="0 0 189 191" version="1.1" xmlns="http://www.w3.org/2000/svg" xmlns:xlink="http://www.w3.org/1999/xlink">
    <!-- Generator: Sketch 39.1 (31720) - http://www.bohemiancoding.com/sketch -->
    <title>RouterHead Copy 4</title>
    <desc>Created with Sketch.</desc>
    <defs>
        <filter x="-50%" y="-50%" width="200%" height="200%" filterUnits="objectBoundingBox" id="filter-1">
            <feOffset dx="0" dy="0" in="SourceAlpha" result="shadowOffsetOuter1"></feOffset>
            <feGaussianBlur stdDeviation="4.5" in="shadowOffsetOuter1" result="shadowBlurOuter1"></feGaussianBlur>
            <feColorMatrix values="0 0 0 0 0.392156863   0 0 0 0 0.839215686   0 0 0 0 0  0 0 0 1 0" parserType="matrix" in="shadowBlurOuter1" result="shadowMatrixOuter1"></feColorMatrix>
            <feMerge>
                <feMergeNode in="shadowMatrixOuter1"></feMergeNode>
                <feMergeNode in="SourceGraphic"></feMergeNode>
            </feMerge>
        </filter>
        <path d="M85.7829038,169.748943 C40.3385249,169.748943 3.49810756,132.673874 3.49810756,86.9400402 C3.49810756,41.2051466 40.3385249,4.13113691 85.7829038,4.13113691 C131.227283,4.13113691 168.0677,41.2051466 168.0677,86.9400402 C168.0677,132.673874 131.227283,169.748943 85.7829038,169.748943 Z" id="path-2"></path>
        <filter x="-50%" y="-50%" width="200%" height="200%" filterUnits="objectBoundingBox" id="filter-3">
            <feMorphology radius="3" operator="erode" in="SourceAlpha" result="shadowSpreadInner1"></feMorphology>
            <feGaussianBlur stdDeviation="1" in="shadowSpreadInner1" result="shadowBlurInner1"></feGaussianBlur>
            <feOffset dx="0" dy="0" in="shadowBlurInner1" result="shadowOffsetInner1"></feOffset>
            <feComposite in="shadowOffsetInner1" in2="SourceAlpha" operator="arithmetic" k2="-1" k3="1" result="shadowInnerInner1"></feComposite>
            <feColorMatrix values="0 0 0 0 1   0 0 0 0 1   0 0 0 0 1  0 0 0 1 0" parserType="matrix" in="shadowInnerInner1"></feColorMatrix>
        </filter>
        <linearGradient x1="3.92161505%" y1="4.4943235%" x2="65.9420096%" y2="75.5721099%" id="linearGradient-4">
            <stop stop-color="#252525" offset="0%"></stop>
            <stop stop-color="#DEE1E2" offset="100%"></stop>
        </linearGradient>
    </defs>
    <g id="Page-1" stroke="none" stroke-width="1" fill="none" fill-rule="evenodd">
        <g id="1000-X-1000-Copy-2" transform="translate(-1572.000000, -1111.000000)">
            <g id="RouterHead-Copy-4" filter="url(#filter-1)" transform="translate(1580.787568, 1119.902688)">
                <path d="M171.356546,86.9400402 C171.356546,134.501812 133.043652,173.058737 85.7829038,173.058737 C38.5221557,173.058737 0.209261538,134.501812 0.209261538,86.9400402 C0.209261538,39.3771659 38.5221557,0.821342826 85.7829038,0.821342826 C133.043652,0.821342826 171.356546,39.3771659 171.356546,86.9400402" id="outer-layer" fill="#64D600"></path>
                <g id="inner-background">
                    <use fill="#393939" fill-rule="evenodd" xlink:href="#path-2"></use>
                    <use fill="black" fill-opacity="1" filter="url(#filter-3)" xlink:href="#path-2"></use>
                </g>
                <path d="M168.037293,84.6667108 L130.000355,48.6927932 C130.000355,48.6927932 118.09201,56.5451711 118.064883,57.7251996 C117.729263,72.3246705 118.609003,100.166612 118.609003,100.166612 L85.4222919,120.843197 L85.9265826,135.534455 L118.661848,162.873799 C147.741858,150.103404 168.0677,120.910358 168.0677,86.9400402 C168.0677,86.1798272 168.057521,85.4220073 168.037293,84.6667108 Z" id="Combined-Shape" fill="url(#linearGradient-4)"></path>
                <g id="Shield" transform="translate(42.440644, 37.479671)">
                    <path d="M81.5278923,11.4844333 C67.5682806,11.4844333 54.5980935,7.25376278 43.8268944,0.00518727496 C33.0556953,7.25376278 20.0851079,11.4844333 6.12589643,11.4844333 C4.0822064,11.4844333 2.06133076,11.3883727 0.0636697821,11.2110607 L1.51458564,44.5140826 C3.32532863,69.4350134 20.0566899,90.7724822 43.8268944,98.4753445 C67.5958981,90.7720819 84.3276596,69.4346131 86.1392031,44.5140826 L87.5893185,11.2110607 C85.5916575,11.3883727 83.5707819,11.4844333 81.5278923,11.4844333" id="Shape" fill="#FFBE00"></path>
                    <path d="M80.2262707,20.49332 L80.1702353,21.741708 L79.1976214,44.1082264 C78.3935138,54.9146477 74.4346149,65.1294956 67.7463931,73.6588796 C61.5068545,81.6199048 53.2692547,87.6200923 43.8272946,91.1183005 C37.2195236,88.6679538 31.203326,84.9984374 26.0484721,80.2826607 C25.8239304,80.0785319 25.5997889,79.8708007 25.37965,79.6586668 C23.4224145,77.8094996 21.5896576,75.8042338 19.907796,73.6584793 C13.2203747,65.1290953 9.2614757,54.9146477 8.45656762,44.1078261 L7.34066323,18.4280163 C20.2604185,18.2230869 32.7639111,14.7132714 43.8268944,8.21717091 C54.8862754,14.7136717 67.3901682,18.2234872 80.3143263,18.4284165 L80.2262707,20.49332 Z" id="Shape" fill="#1D1F20"></path>
                    <path d="M80.2262707,20.49332 L80.1702353,21.741708 L79.1976214,44.1082264 C78.3935138,54.9146477 74.4346149,65.1294956 67.7463931,73.6588796 C61.5068545,81.6199048 53.2692547,87.6200923 43.8272946,91.1183005 C37.2195236,88.6679538 31.203326,84.9984374 26.0484721,80.2826607 C25.8239304,80.0785319 25.5997889,79.8708007 25.37965,79.6586668 C24.2113125,78.4294909 23.0982098,77.1406774 22.0419431,75.7962287 C15.3573236,67.2668448 11.3948223,57.0483946 10.5907148,46.2411728 L9.47400986,20.5613629 C22.398168,20.3572341 34.8980582,16.8466181 45.9610415,10.3549203 C56.3868226,16.4747834 68.0906103,19.9449738 80.2262707,20.49332" id="Shape" fill="#3E4348"></path>
                    <polygon id="Shape" fill="#FFFFFF" points="43.2413248 64.9101571 24.6599957 46.3288281 30.6033473 40.3850762 43.2413248 53.0234539 67.0867767 29.178002 73.0301283 35.1217539"></polygon>
                </g>
            </g>
        </g>
    </g>
</svg>