<?xml version="1.0" encoding="UTF-8"?>
<svg width="205px" height="209px" viewBox="0 0 205 209" version="1.1" xmlns="http://www.w3.org/2000/svg" xmlns:xlink="http://www.w3.org/1999/xlink">
    <!-- Generator: Sketch 3.8.3 (29802) - http://www.bohemiancoding.com/sketch -->
    <title>Group 8</title>
    <desc>Created with Sketch.</desc>
    <defs>
        <linearGradient x1="0%" y1="0%" x2="89.4638038%" y2="83.134953%" id="linearGradient-1">
            <stop stop-color="#515151" offset="4.00191327%"></stop>
            <stop stop-color="#DDDFE0" offset="100%"></stop>
        </linearGradient>
        <path d="M10.7718855,62.3044526 C1.95129649,62.3044526 -6.87670327,42.6591551 10.7718855,30.9689146 C10.7718855,36.8171025 19.5980326,47.4483866 28.4241797,47.4483866 C19.5980326,35.7581461 19.5980326,17.6969885 37.2447688,0.161014306 C37.2447688,17.6969885 46.0690632,34.9679168 54.8952103,34.9679168 C63.7213573,29.1148207 63.7213573,25.2532497 63.7213573,19.408743 C72.5456517,25.2532497 81.3662408,44.7721596 72.5456517,62.3044526 L10.7718855,62.3044526 L10.7718855,62.3044526 Z" id="path-2"></path>
        <mask id="mask-3" maskContentUnits="userSpaceOnUse" maskUnits="objectBoundingBox" x="0" y="0" width="75.6155518" height="62.1434383" fill="white">
            <use xlink:href="#path-2"></use>
        </mask>
        <path d="M10.7718855,30.9689146 C10.7718855,36.8171025 19.5980326,47.4483866 28.4241797,47.4483866 C19.5980326,35.7581461 19.5980326,17.6969885 37.2447688,0.161014306 C37.2447688,17.6969885 46.0690632,34.9679168 54.8952103,34.9679168 C63.7213573,29.1148207 63.7213573,25.2532497 63.7213573,19.408743 C72.5456517,25.2532497 81.3662408,44.7721596 72.5456517,62.3044526 L10.7718855,62.3044526 C1.95129649,62.3044526 -6.87670327,42.6591551 10.7718855,30.9689146 Z" id="path-4"></path>
        <mask id="mask-5" maskContentUnits="userSpaceOnUse" maskUnits="objectBoundingBox" x="-4.125" y="-4.125" width="83.8655518" height="70.3934383">
            <rect x="-3.54138558" y="-3.96398569" width="83.8655518" height="70.3934383" fill="white"></rect>
            <use xlink:href="#path-4" fill="black"></use>
        </mask>
        <path d="M146.693676,33.6848208 C128.479481,13.2056936 101.929503,0.304818573 72.3663638,0.304818573 C44.0935027,0.304818573 18.5765244,12.1041552 0.47111092,31.0471462" id="path-6"></path>
    </defs>
    <g id="Page-1" stroke="none" stroke-width="1" fill="none" fill-rule="evenodd">
        <g id="1000-X-1000-Copy-2" transform="translate(-2192.000000, -1644.000000)">
            <g id="Group-8" transform="translate(2191.257513, 1649.085252)">
                <g id="Group-3-Copy-3" transform="translate(0.750550, 1.000000)">
                    <path d="M204.484692,101.5 C204.484692,157.483165 158.812781,202.864715 102.474342,202.864715 C46.1359023,202.864715 0.463991462,157.483165 0.463991462,101.5 C0.463991462,45.5194304 46.1359023,0.13528481 102.474342,0.13528481 C158.812781,0.13528481 204.484692,45.5194304 204.484692,101.5" id="Fill-39-Copy" fill="#DEE2E2"></path>
                    <path d="M203.12151,118.111972 L158.991936,81.4147476 L160.491936,118.414746 L160.491936,154.41475 L46.9919362,153.41475 L109.764956,202.609826 C157.107842,199.287868 195.530809,163.864842 203.12151,118.111972 Z" id="Combined-Shape" fill="url(#linearGradient-1)"></path>
                    <g id="Group-7" transform="translate(58.105096, 149.762703)" stroke="#3E4348" stroke-width="3.125" stroke-linecap="round" stroke-linejoin="round">
                        <path d="M44.8261746,1.14955696 L44.8261746,13.8880514 M53.1502192,24.373339 L88.7053147,24.373339 M0.94181153,24.373339 L36.4982128,24.373339" id="Stroke-86"></path>
                    </g>
                    <g id="Group-6" transform="translate(46.700460, 80.781690)" stroke="#4B4A4A" stroke-width="2" fill="#FFFFFF">
                        <rect id="Rectangle-1" x="0.055869932" y="51.4969892" width="26.2285613" height="21.4250642" rx="3"></rect>
                        <rect id="Rectangle-1-Copy-3" x="43.5393544" y="26.1281271" width="26.2285613" height="21.4250642" rx="3"></rect>
                        <rect id="Rectangle-1-Copy-6" x="0.055869932" y="0.75926502" width="26.2285613" height="21.4250642" rx="3"></rect>
                        <rect id="Rectangle-1-Copy" x="29.7992236" y="51.4969892" width="39.9686921" height="21.4250642" rx="3"></rect>
                        <rect id="Rectangle-1-Copy-4" x="0.055869932" y="26.1281271" width="39.9686921" height="21.4250642" rx="3"></rect>
                        <rect id="Rectangle-1-Copy-7" x="29.7992236" y="0.75926502" width="39.9686921" height="21.4250642" rx="3"></rect>
                        <rect id="Rectangle-1-Copy-2" x="73.2827081" y="51.4969892" width="39.9686921" height="21.4250642" rx="3"></rect>
                        <rect id="Rectangle-1-Copy-5" x="73.2827081" y="26.1281271" width="39.9686921" height="21.4250642" rx="3"></rect>
                        <rect id="Rectangle-1-Copy-8" x="73.2827081" y="0.75926502" width="39.9686921" height="21.4250642" rx="3"></rect>
                    </g>
                    <g id="Group-9" transform="translate(64.000000, 15.364610)">
                        <path d="M10.7718855,30.9689146 C10.7718855,36.8171025 19.5980326,47.4483866 28.4241797,47.4483866 C19.5980326,35.7581461 19.5980326,17.6969885 37.2447688,0.161014306 C37.2447688,17.6969885 46.0690632,34.9679168 54.8952103,34.9679168 C63.7213573,29.1148207 63.7213573,25.2532497 63.7213573,19.408743 C72.5456517,25.2532497 81.3662408,44.7721596 72.5456517,62.3044526 L10.7718855,62.3044526 C1.95129649,62.3044526 -6.87670327,42.6591551 10.7718855,30.9689146 Z" id="Fill-60-Copy" fill="#FACD5A"></path>
                        <use id="Stroke-61-Copy" stroke="#FFE091" mask="url(#mask-3)" stroke-width="8.25" stroke-linecap="round" stroke-linejoin="round" xlink:href="#path-2"></use>
                        <use id="Stroke-61-Copy-2" stroke="#000000" mask="url(#mask-5)" stroke-width="8.25" stroke-linecap="round" stroke-linejoin="round" xlink:href="#path-4"></use>
                    </g>
                </g>
                <g id="Group-8-Copy" transform="translate(94.750550, 165.260545)">
                    <path d="M16.5861858,8.40104698 C16.5861858,12.7982902 13.0196154,16.3648605 8.62608611,16.3648605 C4.22884288,16.3648605 0.662272575,12.7982902 0.662272575,8.40104698 C0.662272575,4.0025658 4.22884288,0.439709375 8.62608611,0.439709375 C13.0196154,0.439709375 16.5861858,4.0025658 16.5861858,8.40104698" id="Fill-87-Copy-2" fill="#E36851"></path>
                    <path d="M16.5861858,8.40104698 C16.5861858,12.7982902 13.0196154,16.3648605 8.62608611,16.3648605 C4.22884288,16.3648605 0.662272575,12.7982902 0.662272575,8.40104698 C0.662272575,4.0025658 4.22884288,0.439709375 8.62608611,0.439709375 C13.0196154,0.439709375 16.5861858,4.0025658 16.5861858,8.40104698 L16.5861858,8.40104698 Z" id="Stroke-88-Copy" stroke="#3E4348" stroke-width="3.125" stroke-linecap="round" stroke-linejoin="round"></path>
                </g>
                <g id="top-active" transform="translate(31.109083, 0.000000)" stroke-linecap="round">
                    <g id="Oval-1">
                        <use stroke="#64D600" stroke-width="9" xlink:href="#path-6"></use>
                        <use stroke="#FFFFFF" stroke-width="1" xlink:href="#path-6"></use>
                    </g>
                </g>
            </g>
        </g>
    </g>
</svg>