<?xml version="1.0" encoding="UTF-8"?>
<svg width="176px" height="177px" viewBox="0 0 176 177" version="1.1" xmlns="http://www.w3.org/2000/svg" xmlns:xlink="http://www.w3.org/1999/xlink">
    <!-- Generator: Sketch 39.1 (31720) - http://www.bohemiancoding.com/sketch -->
    <title>workstation copy 10</title>
    <desc>Created with Sketch.</desc>
    <defs>
        <filter x="-50%" y="-50%" width="200%" height="200%" filterUnits="objectBoundingBox" id="filter-1">
            <feOffset dx="0" dy="0" in="SourceAlpha" result="shadowOffsetOuter1"></feOffset>
            <feGaussianBlur stdDeviation="4.5" in="shadowOffsetOuter1" result="shadowBlurOuter1"></feGaussianBlur>
            <feColorMatrix values="0 0 0 0 0.392156863   0 0 0 0 0.839215686   0 0 0 0 0  0 0 0 1 0" parserType="matrix" in="shadowBlurOuter1" result="shadowMatrixOuter1"></feColorMatrix>
            <feMerge>
                <feMergeNode in="shadowMatrixOuter1"></feMergeNode>
                <feMergeNode in="SourceGraphic"></feMergeNode>
            </feMerge>
        </filter>
        <path d="M78.8270955,155.984649 C37.0676278,155.984649 3.21445936,121.915856 3.21445936,79.890404 C3.21445936,37.8639785 37.0676278,3.79615878 78.8270955,3.79615878 C120.586563,3.79615878 154.439732,37.8639785 154.439732,79.890404 C154.439732,121.915856 120.586563,155.984649 78.8270955,155.984649 Z" id="path-2"></path>
        <filter x="-50%" y="-50%" width="200%" height="200%" filterUnits="objectBoundingBox" id="filter-3">
            <feGaussianBlur stdDeviation="2.5" in="SourceAlpha" result="shadowBlurInner1"></feGaussianBlur>
            <feOffset dx="0" dy="0" in="shadowBlurInner1" result="shadowOffsetInner1"></feOffset>
            <feComposite in="shadowOffsetInner1" in2="SourceAlpha" operator="arithmetic" k2="-1" k3="1" result="shadowInnerInner1"></feComposite>
            <feColorMatrix values="0 0 0 0 0   0 0 0 0 0   0 0 0 0 0  0 0 0 0.5 0" parserType="matrix" in="shadowInnerInner1"></feColorMatrix>
        </filter>
        <linearGradient x1="100%" y1="94.1874815%" x2="19.7753586%" y2="19.1033423%" id="linearGradient-4">
            <stop stop-color="#515151" stop-opacity="0.472316576" offset="0%"></stop>
            <stop stop-color="#FFFFFF" stop-opacity="0.733044611" offset="100%"></stop>
        </linearGradient>
        <path d="M73.319,20.365 L73.319,12.309 C73.319,10.703 72.016,9.403 70.414,9.403 L38.453,9.403 C36.848,9.403 35.547,8.101 35.547,6.498 L35.547,3.59 C35.547,1.987 34.244,0.688 32.639,0.688 L12.302,0.688 C10.697,0.688 9.397,1.987 9.397,3.59 L9.397,6.498 C9.397,8.101 8.097,9.403 6.492,9.403 L3.586,9.403 C1.981,9.403 0.681,10.703 0.681,12.309 L0.681,20.365" id="path-5"></path>
        <filter x="-50%" y="-50%" width="200%" height="200%" filterUnits="objectBoundingBox" id="filter-6">
            <feGaussianBlur stdDeviation="2" in="SourceAlpha" result="shadowBlurInner1"></feGaussianBlur>
            <feOffset dx="0" dy="1" in="shadowBlurInner1" result="shadowOffsetInner1"></feOffset>
            <feComposite in="shadowOffsetInner1" in2="SourceAlpha" operator="arithmetic" k2="-1" k3="1" result="shadowInnerInner1"></feComposite>
            <feColorMatrix values="0 0 0 0 0.537414966   0 0 0 0 0.537414966   0 0 0 0 0.537414966  0 0 0 1 0" parserType="matrix" in="shadowInnerInner1"></feColorMatrix>
        </filter>
        <path d="M70.414,67.512 L3.586,67.512 C1.981,67.512 0.681,66.212 0.681,64.606 L0.681,21.024 C0.681,19.419 1.981,18.119 3.586,18.119 L70.414,18.119 C72.016,18.119 73.319,19.419 73.319,21.024 L73.319,64.606 C73.319,66.212 72.016,67.512 70.414,67.512" id="path-7"></path>
        <filter x="-50%" y="-50%" width="200%" height="200%" filterUnits="objectBoundingBox" id="filter-8">
            <feGaussianBlur stdDeviation="3" in="SourceAlpha" result="shadowBlurInner1"></feGaussianBlur>
            <feOffset dx="0" dy="0" in="shadowBlurInner1" result="shadowOffsetInner1"></feOffset>
            <feComposite in="shadowOffsetInner1" in2="SourceAlpha" operator="arithmetic" k2="-1" k3="1" result="shadowInnerInner1"></feComposite>
            <feColorMatrix values="0 0 0 0 0   0 0 0 0 0   0 0 0 0 0  0 0 0 0.692425272 0" parserType="matrix" in="shadowInnerInner1"></feColorMatrix>
        </filter>
        <path d="M70.414,67.512 L3.586,67.512 C1.981,67.512 0.681,66.212 0.681,64.606 L0.681,21.024 C0.681,19.419 1.981,18.119 3.586,18.119 L70.414,18.119 C72.016,18.119 73.319,19.419 73.319,21.024 L73.319,64.606 C73.319,66.212 72.016,67.512 70.414,67.512 L70.414,67.512 Z" id="path-9"></path>
        <filter x="-50%" y="-50%" width="200%" height="200%" filterUnits="objectBoundingBox" id="filter-10">
            <feGaussianBlur stdDeviation="7" in="SourceAlpha" result="shadowBlurInner1"></feGaussianBlur>
            <feOffset dx="0" dy="1" in="shadowBlurInner1" result="shadowOffsetInner1"></feOffset>
            <feComposite in="shadowOffsetInner1" in2="SourceAlpha" operator="arithmetic" k2="-1" k3="1" result="shadowInnerInner1"></feComposite>
            <feColorMatrix values="0 0 0 0 1   0 0 0 0 1   0 0 0 0 1  0 0 0 1 0" parserType="matrix" in="shadowInnerInner1"></feColorMatrix>
        </filter>
        <path d="M37,88.188 C33.695,88.188 31.019,85.508 31.019,82.203 C31.019,78.901 33.695,76.225 37,76.225 C40.302,76.225 42.981,78.901 42.981,82.203 C42.981,85.508 40.302,88.188 37,88.188 Z" id="path-11"></path>
        <filter x="-50%" y="-50%" width="200%" height="200%" filterUnits="objectBoundingBox" id="filter-12">
            <feMorphology radius="1.5625" operator="dilate" in="SourceAlpha" result="shadowSpreadOuter1"></feMorphology>
            <feOffset dx="0" dy="2" in="shadowSpreadOuter1" result="shadowOffsetOuter1"></feOffset>
            <feMorphology radius="1.5625" operator="erode" in="SourceAlpha" result="shadowInner"></feMorphology>
            <feOffset dx="0" dy="2" in="shadowInner" result="shadowInner"></feOffset>
            <feComposite in="shadowOffsetOuter1" in2="shadowInner" operator="out" result="shadowOffsetOuter1"></feComposite>
            <feGaussianBlur stdDeviation="2" in="shadowOffsetOuter1" result="shadowBlurOuter1"></feGaussianBlur>
            <feColorMatrix values="0 0 0 0 0.264748087   0 0 0 0 0.264748087   0 0 0 0 0.264748087  0 0 0 0.5 0" parserType="matrix" in="shadowBlurOuter1"></feColorMatrix>
        </filter>
        <path d="M30.884,4.617 C30.884,7.08 28.883,9.082 26.419,9.082 C23.95,9.082 21.949,7.08 21.949,4.617 C21.949,2.151 23.95,0.152 26.419,0.152 C28.883,0.152 30.884,2.151 30.884,4.617 L30.884,4.617 Z M14.929,10.195 L21.903,6.479 L14.929,10.195 Z M13.954,19.5 L20.84,23.965 L13.954,19.5 Z" id="path-13"></path>
        <filter x="-50%" y="-50%" width="200%" height="200%" filterUnits="objectBoundingBox" id="filter-14">
            <feMorphology radius="1.5625" operator="dilate" in="SourceAlpha" result="shadowSpreadOuter1"></feMorphology>
            <feOffset dx="0" dy="2" in="shadowSpreadOuter1" result="shadowOffsetOuter1"></feOffset>
            <feMorphology radius="1.5625" operator="erode" in="SourceAlpha" result="shadowInner"></feMorphology>
            <feOffset dx="0" dy="2" in="shadowInner" result="shadowInner"></feOffset>
            <feComposite in="shadowOffsetOuter1" in2="shadowInner" operator="out" result="shadowOffsetOuter1"></feComposite>
            <feGaussianBlur stdDeviation="1" in="shadowOffsetOuter1" result="shadowBlurOuter1"></feGaussianBlur>
            <feColorMatrix values="0 0 0 0 0   0 0 0 0 0   0 0 0 0 0  0 0 0 0.5 0" parserType="matrix" in="shadowBlurOuter1"></feColorMatrix>
        </filter>
        <path d="M15.628,14.291 C15.628,18.606 12.13,22.104 7.813,22.104 C3.5,22.104 0.001,18.606 0.001,14.291 C0.001,9.976 3.5,6.476 7.813,6.476 C12.13,6.476 15.628,9.976 15.628,14.291 L15.628,14.291 Z" id="path-15"></path>
        <filter x="-50%" y="-50%" width="200%" height="200%" filterUnits="objectBoundingBox" id="filter-16">
            <feMorphology radius="1.5625" operator="dilate" in="SourceAlpha" result="shadowSpreadOuter1"></feMorphology>
            <feOffset dx="0" dy="2" in="shadowSpreadOuter1" result="shadowOffsetOuter1"></feOffset>
            <feMorphology radius="1.5625" operator="erode" in="SourceAlpha" result="shadowInner"></feMorphology>
            <feOffset dx="0" dy="2" in="shadowInner" result="shadowInner"></feOffset>
            <feComposite in="shadowOffsetOuter1" in2="shadowInner" operator="out" result="shadowOffsetOuter1"></feComposite>
            <feGaussianBlur stdDeviation="1" in="shadowOffsetOuter1" result="shadowBlurOuter1"></feGaussianBlur>
            <feColorMatrix values="0 0 0 0 0   0 0 0 0 0   0 0 0 0 0  0 0 0 0.5 0" parserType="matrix" in="shadowBlurOuter1"></feColorMatrix>
        </filter>
        <path d="M26.419,31.402 C23.333,31.402 20.836,28.906 20.836,25.827 C20.836,22.741 23.333,20.242 26.419,20.242 C29.499,20.242 31.999,22.741 31.999,25.827 C31.999,28.906 29.499,31.402 26.419,31.402 Z" id="path-17"></path>
        <filter x="-50%" y="-50%" width="200%" height="200%" filterUnits="objectBoundingBox" id="filter-18">
            <feMorphology radius="1.5625" operator="dilate" in="SourceAlpha" result="shadowSpreadOuter1"></feMorphology>
            <feOffset dx="0" dy="2" in="shadowSpreadOuter1" result="shadowOffsetOuter1"></feOffset>
            <feMorphology radius="1.5625" operator="erode" in="SourceAlpha" result="shadowInner"></feMorphology>
            <feOffset dx="0" dy="2" in="shadowInner" result="shadowInner"></feOffset>
            <feComposite in="shadowOffsetOuter1" in2="shadowInner" operator="out" result="shadowOffsetOuter1"></feComposite>
            <feGaussianBlur stdDeviation="1" in="shadowOffsetOuter1" result="shadowBlurOuter1"></feGaussianBlur>
            <feColorMatrix values="0 0 0 0 0   0 0 0 0 0   0 0 0 0 0  0 0 0 0.5 0" parserType="matrix" in="shadowBlurOuter1"></feColorMatrix>
        </filter>
    </defs>
    <g id="Page-1" stroke="none" stroke-width="1" fill="none" fill-rule="evenodd">
        <g id="1000-X-1000-Copy-2" transform="translate(-2412.000000, -2099.000000)">
            <g id="workstation-copy-10" filter="url(#filter-1)" transform="translate(2421.333266, 2107.539535)">
                <path d="M157.461898,79.890404 C157.461898,123.595573 122.25565,159.026065 78.8270955,159.026065 C35.3985411,159.026065 0.192293319,123.595573 0.192293319,79.890404 C0.192293319,36.1842218 35.3985411,0.75474327 78.8270955,0.75474327 C122.25565,0.75474327 157.461898,36.1842218 157.461898,79.890404" id="outer-layer" fill="#64D600"></path>
                <g id="inner-background">
                    <use fill="#393939" fill-rule="evenodd" xlink:href="#path-2"></use>
                    <use fill="black" fill-opacity="1" filter="url(#filter-3)" xlink:href="#path-2"></use>
                </g>
                <path d="M154.377022,76.7626896 L113.995726,43.5444835 L113.995726,103.544486 L78.4957258,103.544486 L78.4957258,118.544486 L46.4957258,119.044486 L88.3821908,155.382856 C125.630762,150.655877 154.439732,118.658689 154.439732,79.890404 C154.439732,78.842752 154.418694,77.8000457 154.377022,76.7626896 Z" id="Combined-Shape" fill="url(#linearGradient-4)"></path>
                <polyline id="Path-1202" fill-opacity="0.179999992" fill="#898989" points="42.9957258 102.044482 116.528868 53.5444835 116.52887 100.192659 111.100964 104.327331 44.9555512 104.818792"></polyline>
                <g id="Group-11" transform="translate(42.000000, 35.500000)">
                    <g id="Fill-26">
                        <use fill="#FFFFFF" fill-rule="evenodd" xlink:href="#path-5"></use>
                        <use fill="black" fill-opacity="1" filter="url(#filter-6)" xlink:href="#path-5"></use>
                    </g>
                    <path d="M73.319,20.365 L73.319,12.309 C73.319,10.703 72.016,9.403 70.414,9.403 L38.453,9.403 C36.848,9.403 35.547,8.101 35.547,6.498 L35.547,3.59 C35.547,1.987 34.244,0.688 32.639,0.688 L12.302,0.688 C10.697,0.688 9.397,1.987 9.397,3.59 L9.397,6.498 C9.397,8.101 8.097,9.403 6.492,9.403 L3.586,9.403 C1.981,9.403 0.681,10.703 0.681,12.309 L0.681,20.365" id="Stroke-27" stroke="#FFFFFF" stroke-width="3.125"></path>
                    <g id="Fill-28">
                        <use fill="#FFFFFF" fill-rule="evenodd" xlink:href="#path-7"></use>
                        <use fill="black" fill-opacity="1" filter="url(#filter-8)" xlink:href="#path-7"></use>
                    </g>
                    <g id="Stroke-29">
                        <use fill="black" fill-opacity="1" filter="url(#filter-10)" xlink:href="#path-9"></use>
                        <use stroke="#FFFFFF" stroke-width="3.125" stroke-linecap="round" stroke-linejoin="round" xlink:href="#path-9"></use>
                    </g>
                    <path d="M37,68.751 L37,75.834 M42.93,82.954 L68.247,82.954 M5.75,82.954 L31.07,82.954" id="Stroke-30" stroke="#FFFFFF" stroke-width="3.125" stroke-linecap="round" stroke-linejoin="round"></path>
                    <path d="M37,88.188 C33.695,88.188 31.019,85.508 31.019,82.203 C31.019,78.901 33.695,76.225 37,76.225 C40.302,76.225 42.981,78.901 42.981,82.203 C42.981,85.508 40.302,88.188 37,88.188 Z" id="Fill-31" fill="#FFFFFF"></path>
                    <g id="Stroke-32">
                        <use fill="black" fill-opacity="1" filter="url(#filter-12)" xlink:href="#path-11"></use>
                        <use stroke="#3E4348" stroke-width="3.125" stroke-linecap="round" stroke-linejoin="round" xlink:href="#path-11"></use>
                    </g>
                    <g id="Group-10" transform="translate(21.000000, 27.000000)">
                        <path d="M15.628,14.291 C15.628,18.606 12.13,22.104 7.813,22.104 C3.5,22.104 0.001,18.606 0.001,14.291 C0.001,9.976 3.5,6.476 7.813,6.476 C12.13,6.476 15.628,9.976 15.628,14.291" id="Fill-33" fill="#55BBDA"></path>
                        <path d="M31.999,25.827 C31.999,28.906 29.499,31.402 26.419,31.402 C23.333,31.402 20.836,28.906 20.836,25.827 C20.836,22.741 23.333,20.242 26.419,20.242 C29.499,20.242 31.999,22.741 31.999,25.827" id="Fill-35" fill="#E36851"></path>
                        <path d="M30.884,4.617 C30.884,7.08 28.883,9.082 26.419,9.082 C23.95,9.082 21.949,7.08 21.949,4.617 C21.949,2.151 23.95,0.152 26.419,0.152 C28.883,0.152 30.884,2.151 30.884,4.617" id="Fill-37" fill="#E36851"></path>
                        <g id="Stroke-38">
                            <use fill="black" fill-opacity="1" filter="url(#filter-14)" xlink:href="#path-13"></use>
                            <use stroke="#FFFFFF" stroke-width="3.125" stroke-linecap="round" stroke-linejoin="round" xlink:href="#path-13"></use>
                        </g>
                        <g id="Stroke-34">
                            <use fill="black" fill-opacity="1" filter="url(#filter-16)" xlink:href="#path-15"></use>
                            <use stroke="#FFFFFF" stroke-width="3.125" stroke-linecap="round" stroke-linejoin="round" xlink:href="#path-15"></use>
                        </g>
                        <g id="Stroke-36">
                            <use fill="black" fill-opacity="1" filter="url(#filter-18)" xlink:href="#path-17"></use>
                            <use stroke="#FFFFFF" stroke-width="3.125" stroke-linecap="round" stroke-linejoin="round" xlink:href="#path-17"></use>
                        </g>
                    </g>
                </g>
            </g>
        </g>
    </g>
</svg>