<?xml version="1.0" encoding="UTF-8"?>
<svg width="212px" height="214px" viewBox="0 0 212 214" version="1.1" xmlns="http://www.w3.org/2000/svg" xmlns:xlink="http://www.w3.org/1999/xlink">
    <!-- Generator: Sketch 39.1 (31720) - http://www.bohemiancoding.com/sketch -->
    <title>workstation copy 4</title>
    <desc>Created with Sketch.</desc>
    <defs>
        <filter x="-50%" y="-50%" width="200%" height="200%" filterUnits="objectBoundingBox" id="filter-1">
            <feOffset dx="0" dy="0" in="SourceAlpha" result="shadowOffsetOuter1"></feOffset>
            <feGaussianBlur stdDeviation="4.5" in="shadowOffsetOuter1" result="shadowBlurOuter1"></feGaussianBlur>
            <feColorMatrix values="0 0 0 0 0.392156863   0 0 0 0 0.839215686   0 0 0 0 0  0 0 0 1 0" parserType="matrix" in="shadowBlurOuter1" result="shadowMatrixOuter1"></feColorMatrix>
            <feMerge>
                <feMergeNode in="shadowMatrixOuter1"></feMergeNode>
                <feMergeNode in="SourceGraphic"></feMergeNode>
            </feMerge>
        </filter>
        <path d="M97.1226219,192.188207 C45.6709103,192.188207 3.96052549,150.212151 3.96052549,98.4327212 C3.96052549,46.6520915 45.6709103,4.67723556 97.1226219,4.67723556 C148.574334,4.67723556 190.284718,46.6520915 190.284718,98.4327212 C190.284718,150.212151 148.574334,192.188207 97.1226219,192.188207 Z" id="path-2"></path>
        <filter x="-50%" y="-50%" width="200%" height="200%" filterUnits="objectBoundingBox" id="filter-3">
            <feGaussianBlur stdDeviation="2.5" in="SourceAlpha" result="shadowBlurInner1"></feGaussianBlur>
            <feOffset dx="0" dy="0" in="shadowBlurInner1" result="shadowOffsetInner1"></feOffset>
            <feComposite in="shadowOffsetInner1" in2="SourceAlpha" operator="arithmetic" k2="-1" k3="1" result="shadowInnerInner1"></feComposite>
            <feColorMatrix values="0 0 0 0 0   0 0 0 0 0   0 0 0 0 0  0 0 0 0.5 0" parserType="matrix" in="shadowInnerInner1"></feColorMatrix>
        </filter>
        <linearGradient x1="100%" y1="73.8418084%" x2="35.4553392%" y2="13.1043919%" id="linearGradient-4">
            <stop stop-color="#515151" stop-opacity="0.257586051" offset="0%"></stop>
            <stop stop-color="#DDDFE0" stop-opacity="0.534816576" offset="100%"></stop>
        </linearGradient>
        <path d="M112.500397,85.5030627 L10.2355261,85.5030627 C4.58879157,85.5030627 0.00632753346,81.28114 0.00632753346,76.0755593 L0.00632753346,10.1205082 C0.00632753346,4.91805019 4.58879157,0.696127499 10.2355261,0.696127499 L112.500397,0.696127499 C118.150521,0.696127499 122.732985,4.91805019 122.732985,10.1205082 L122.732985,76.0755593 C122.732985,81.28114 118.150521,85.5030627 112.500397,85.5030627 L112.500397,85.5030627 Z" id="path-5"></path>
        <filter x="-50%" y="-50%" width="200%" height="200%" filterUnits="objectBoundingBox" id="filter-6">
            <feGaussianBlur stdDeviation="7" in="SourceAlpha" result="shadowBlurInner1"></feGaussianBlur>
            <feOffset dx="0" dy="4" in="shadowBlurInner1" result="shadowOffsetInner1"></feOffset>
            <feComposite in="shadowOffsetInner1" in2="SourceAlpha" operator="arithmetic" k2="-1" k3="1" result="shadowInnerInner1"></feComposite>
            <feColorMatrix values="0 0 0 0 1   0 0 0 0 1   0 0 0 0 1  0 0 0 0.997480752 0" parserType="matrix" in="shadowInnerInner1"></feColorMatrix>
        </filter>
        <mask id="mask-7" maskContentUnits="userSpaceOnUse" maskUnits="objectBoundingBox" x="0" y="0" width="122.726657" height="84.8069352" fill="white">
            <use xlink:href="#path-5"></use>
        </mask>
        <ellipse id="path-8" cx="9.24072694" cy="1.46419385" rx="1.31356355" ry="1.31356355"></ellipse>
        <filter x="-50%" y="-50%" width="200%" height="200%" filterUnits="objectBoundingBox" id="filter-9">
            <feGaussianBlur stdDeviation="6" in="SourceAlpha" result="shadowBlurInner1"></feGaussianBlur>
            <feOffset dx="0" dy="1" in="shadowBlurInner1" result="shadowOffsetInner1"></feOffset>
            <feComposite in="shadowOffsetInner1" in2="SourceAlpha" operator="arithmetic" k2="-1" k3="1" result="shadowInnerInner1"></feComposite>
            <feColorMatrix values="0 0 0 0 0   0 0 0 0 0   0 0 0 0 0  0 0 0 0.5 0" parserType="matrix" in="shadowInnerInner1"></feColorMatrix>
        </filter>
        <ellipse id="path-10" cx="5.54443616" cy="1.46419385" rx="1.31356355" ry="1.31356355"></ellipse>
        <filter x="-50%" y="-50%" width="200%" height="200%" filterUnits="objectBoundingBox" id="filter-11">
            <feGaussianBlur stdDeviation="6" in="SourceAlpha" result="shadowBlurInner1"></feGaussianBlur>
            <feOffset dx="0" dy="1" in="shadowBlurInner1" result="shadowOffsetInner1"></feOffset>
            <feComposite in="shadowOffsetInner1" in2="SourceAlpha" operator="arithmetic" k2="-1" k3="1" result="shadowInnerInner1"></feComposite>
            <feColorMatrix values="0 0 0 0 0   0 0 0 0 0   0 0 0 0 0  0 0 0 0.5 0" parserType="matrix" in="shadowInnerInner1"></feColorMatrix>
        </filter>
        <ellipse id="path-12" cx="1.84814539" cy="1.46419385" rx="1.31356355" ry="1.31356355"></ellipse>
        <filter x="-50%" y="-50%" width="200%" height="200%" filterUnits="objectBoundingBox" id="filter-13">
            <feGaussianBlur stdDeviation="6" in="SourceAlpha" result="shadowBlurInner1"></feGaussianBlur>
            <feOffset dx="0" dy="1" in="shadowBlurInner1" result="shadowOffsetInner1"></feOffset>
            <feComposite in="shadowOffsetInner1" in2="SourceAlpha" operator="arithmetic" k2="-1" k3="1" result="shadowInnerInner1"></feComposite>
            <feColorMatrix values="0 0 0 0 0   0 0 0 0 0   0 0 0 0 0  0 0 0 0.5 0" parserType="matrix" in="shadowInnerInner1"></feColorMatrix>
        </filter>
        <filter x="-50%" y="-50%" width="200%" height="200%" filterUnits="objectBoundingBox" id="filter-14">
            <feOffset dx="0" dy="2" in="SourceAlpha" result="shadowOffsetOuter1"></feOffset>
            <feGaussianBlur stdDeviation="1.5" in="shadowOffsetOuter1" result="shadowBlurOuter1"></feGaussianBlur>
            <feColorMatrix values="0 0 0 0 0.280187075   0 0 0 0 0.280187075   0 0 0 0 0.280187075  0 0 0 0.5 0" parserType="matrix" in="shadowBlurOuter1" result="shadowMatrixOuter1"></feColorMatrix>
            <feMerge>
                <feMergeNode in="shadowMatrixOuter1"></feMergeNode>
                <feMergeNode in="SourceGraphic"></feMergeNode>
            </feMerge>
        </filter>
    </defs>
    <g id="Page-1" stroke="none" stroke-width="1" fill="none" fill-rule="evenodd">
        <g id="1000-X-1000-Copy-2" transform="translate(-795.000000, -2224.000000)">
            <g id="workstation-copy-4" filter="url(#filter-1)" transform="translate(803.691296, 2232.642349)">
                <path d="M194.00832,98.4327212 C194.00832,152.281726 150.63081,195.935525 97.1226219,195.935525 C43.6144337,195.935525 0.236924007,152.281726 0.236924007,98.4327212 C0.236924007,44.5824684 43.6144337,0.929916863 97.1226219,0.929916863 C150.63081,0.929916863 194.00832,44.5824684 194.00832,98.4327212" id="outer-layer" fill="#64D600"></path>
                <g id="inner-background">
                    <use fill="#393939" fill-rule="evenodd" xlink:href="#path-2"></use>
                    <use fill="black" fill-opacity="1" filter="url(#filter-3)" xlink:href="#path-2"></use>
                </g>
                <path d="M189.053119,83.1494445 L154.681437,48.5234592 L156.529582,121.833226 L38.864326,128.609759 L109.746776,191.334688 C155.227504,185.134084 190.284718,145.903228 190.284718,98.4327212 C190.284718,93.2283517 189.863366,88.1230389 189.053119,83.1494445 Z" id="Combined-Shape" fill="url(#linearGradient-4)"></path>
                <g id="links" transform="translate(55.231326, 131.073953)" stroke="#FFFFFF" stroke-width="3.125" stroke-linecap="round" stroke-linejoin="round">
                    <path d="M41.1970565,0.590158793 L41.1970565,10.8645833 M49.2641635,19.5894851 L82.8141627,19.5894851 M0,19.5894851 L33.5512314,19.5894851" id="Stroke-86"></path>
                </g>
                <polygon id="Path-1267" stroke="#FFFFFF" fill="#FFFFFF" points="37.9597208 117.124498 157.404322 117.124498 153.967067 129.006149 39.3927295 127.657296"></polygon>
                <g id="monitor" transform="translate(35.783401, 45.799939)">
                    <polyline id="Path-1202" fill-opacity="0.179999992" fill="#FFFFFF" points="2.46487679 72.3369963 118.917446 5.10105389 120.746182 76.0332871 112.192502 82.5489947 7.95587522 83.3234741"></polyline>
                    <path d="M112.505481,85.5030627 L10.2406102,85.5030627 C4.59387567,85.5030627 0.0114116282,81.28114 0.0114116282,76.0755593 L0.0114116282,10.1205082 C0.0114116282,4.91805019 4.59387567,0.696127499 10.2406102,0.696127499 L112.505481,0.696127499 C118.155605,0.696127499 122.738069,4.91805019 122.738069,10.1205082 L122.738069,76.0755593 C122.738069,81.28114 118.155605,85.5030627 112.505481,85.5030627 L99.1312126,47.8942357" id="Fill-68" fill-opacity="0.333418252" fill="#FFFFFF"></path>
                    <g id="Stroke-69">
                        <use fill="black" fill-opacity="1" filter="url(#filter-6)" xlink:href="#path-5"></use>
                        <use stroke="#FFFFFF" mask="url(#mask-7)" stroke-width="6.25" stroke-linecap="round" stroke-linejoin="round" xlink:href="#path-5"></use>
                    </g>
                </g>
                <g id="windows-store" transform="translate(92.152041, 118.559932)" fill="#393939">
                    <g id="Windows_Store">
                        <path d="M3.78984562,1.34154519 L3.78984562,4.47336386 L7.85265996,4.47336386 L7.85265996,0.720568795 L3.78984562,1.34154519 L3.78984562,1.34154519 Z M0.205009444,4.47336386 L3.31186747,4.47336386 L3.31186747,1.41459765 L0.205009444,1.88943861 L0.205009444,4.47336386 L0.205009444,4.47336386 Z M3.78984562,8.10555519 L7.85265996,8.72653159 L7.85265996,4.97373653 L3.78984562,4.97373653 L3.78984562,8.10555519 L3.78984562,8.10555519 Z M0.205009444,7.55766177 L3.31186747,8.03250273 L3.31186747,4.97373653 L0.205009444,4.97373653 L0.205009444,7.55766177 L0.205009444,7.55766177 Z" id="Shape"></path>
                    </g>
                </g>
                <g id="windows-store-copy" transform="translate(77.904838, 69.831274)" fill="#FFFFFF">
                    <g id="Windows_Store">
                        <path d="M17.762613,3.05993665 L17.762613,17.7384456 L36.804602,17.7384456 L36.804602,0.149484737 L17.762613,3.05993665 L17.762613,3.05993665 Z M0.960857981,17.7384456 L15.522379,17.7384456 L15.522379,3.40232594 L0.960857981,5.62785622 L0.960857981,17.7384456 L0.960857981,17.7384456 Z M17.762613,34.7621493 L36.804602,37.6726012 L36.804602,20.0836403 L17.762613,20.0836403 L17.762613,34.7621493 L17.762613,34.7621493 Z M0.960857981,32.1942297 L15.522379,34.41976 L15.522379,20.0836403 L0.960857981,20.0836403 L0.960857981,32.1942297 L0.960857981,32.1942297 Z" id="Shape"></path>
                    </g>
                </g>
                <g id="indicators" transform="translate(135.583935, 122.217178)">
                    <g id="Oval-2">
                        <use fill="#4B4B4B" fill-rule="evenodd" xlink:href="#path-8"></use>
                        <use fill="black" fill-opacity="1" filter="url(#filter-9)" xlink:href="#path-8"></use>
                    </g>
                    <g id="Oval-2-Copy">
                        <use fill="#4B4B4B" fill-rule="evenodd" xlink:href="#path-10"></use>
                        <use fill="black" fill-opacity="1" filter="url(#filter-11)" xlink:href="#path-10"></use>
                    </g>
                    <g id="Oval-2-Copy-2">
                        <use fill="#4B4B4B" fill-rule="evenodd" xlink:href="#path-12"></use>
                        <use fill="black" fill-opacity="1" filter="url(#filter-13)" xlink:href="#path-12"></use>
                    </g>
                </g>
                <g id="interceptor" filter="url(#filter-14)" transform="translate(87.839701, 142.778874)">
                    <path d="M16.2309849,8.22113468 C16.2309849,12.5242089 12.7407944,16.0143995 8.44135449,16.0143995 C4.13828026,16.0143995 0.648089702,12.5242089 0.648089702,8.22113468 C0.648089702,3.916849 4.13828026,0.430292796 8.44135449,0.430292796 C12.7407944,0.430292796 16.2309849,3.916849 16.2309849,8.22113468" id="Fill-87-Copy-2" fill="#E36851"></path>
                    <path d="M16.2309849,8.22113468 C16.2309849,12.5242089 12.7407944,16.0143995 8.44135449,16.0143995 C4.13828026,16.0143995 0.648089702,12.5242089 0.648089702,8.22113468 C0.648089702,3.916849 4.13828026,0.430292796 8.44135449,0.430292796 C12.7407944,0.430292796 16.2309849,3.916849 16.2309849,8.22113468 L16.2309849,8.22113468 Z" id="Stroke-88-Copy" stroke="#3E4348" stroke-width="3.125" stroke-linecap="round" stroke-linejoin="round"></path>
                </g>
            </g>
        </g>
    </g>
</svg>