<?xml version="1.0" encoding="UTF-8"?>
<svg width="175px" height="176px" viewBox="0 0 175 176" version="1.1" xmlns="http://www.w3.org/2000/svg" xmlns:xlink="http://www.w3.org/1999/xlink">
    <!-- Generator: Sketch 39.1 (31720) - http://www.bohemiancoding.com/sketch -->
    <title>RouterHead Copy 5</title>
    <desc>Created with Sketch.</desc>
    <defs>
        <filter x="-50%" y="-50%" width="200%" height="200%" filterUnits="objectBoundingBox" id="filter-1">
            <feOffset dx="0" dy="0" in="SourceAlpha" result="shadowOffsetOuter1"></feOffset>
            <feGaussianBlur stdDeviation="4.5" in="shadowOffsetOuter1" result="shadowBlurOuter1"></feGaussianBlur>
            <feColorMatrix values="0 0 0 0 0.392156863   0 0 0 0 0.839215686   0 0 0 0 0  0 0 0 1 0" parserType="matrix" in="shadowBlurOuter1" result="shadowMatrixOuter1"></feColorMatrix>
            <feMerge>
                <feMergeNode in="shadowMatrixOuter1"></feMergeNode>
                <feMergeNode in="SourceGraphic"></feMergeNode>
            </feMerge>
        </filter>
        <path d="M78.8270955,155.984649 C37.0676278,155.984649 3.21445936,121.915856 3.21445936,79.890404 C3.21445936,37.8639785 37.0676278,3.79615878 78.8270955,3.79615878 C120.586563,3.79615878 154.439732,37.8639785 154.439732,79.890404 C154.439732,121.915856 120.586563,155.984649 78.8270955,155.984649 Z" id="path-2"></path>
        <filter x="-50%" y="-50%" width="200%" height="200%" filterUnits="objectBoundingBox" id="filter-3">
            <feGaussianBlur stdDeviation="2.5" in="SourceAlpha" result="shadowBlurInner1"></feGaussianBlur>
            <feOffset dx="0" dy="0" in="shadowBlurInner1" result="shadowOffsetInner1"></feOffset>
            <feComposite in="shadowOffsetInner1" in2="SourceAlpha" operator="arithmetic" k2="-1" k3="1" result="shadowInnerInner1"></feComposite>
            <feColorMatrix values="0 0 0 0 0   0 0 0 0 0   0 0 0 0 0  0 0 0 0.5 0" parserType="matrix" in="shadowInnerInner1"></feColorMatrix>
        </filter>
        <linearGradient x1="-17.4547333%" y1="34.2440212%" x2="82.7698764%" y2="54.8033293%" id="linearGradient-4">
            <stop stop-color="#FFFFFF" offset="0%"></stop>
            <stop stop-color="#23272D" offset="100%"></stop>
        </linearGradient>
        <linearGradient x1="0%" y1="31.4367373%" x2="92.0238547%" y2="50%" id="linearGradient-5">
            <stop stop-color="#FFFFFF" offset="0%"></stop>
            <stop stop-color="#23272D" offset="100%"></stop>
        </linearGradient>
    </defs>
    <g id="Page-1" stroke="none" stroke-width="1" fill="none" fill-rule="evenodd">
        <g id="1000-X-1000-Copy-2" transform="translate(-2477.000000, -1386.000000)">
            <g id="RouterHead-Copy-5" filter="url(#filter-1)" transform="translate(2485.673790, 1394.000000)">
                <path d="M157.461898,79.890404 C157.461898,123.595573 122.25565,159.026065 78.8270955,159.026065 C35.3985411,159.026065 0.192293319,123.595573 0.192293319,79.890404 C0.192293319,36.1842218 35.3985411,0.75474327 78.8270955,0.75474327 C122.25565,0.75474327 157.461898,36.1842218 157.461898,79.890404" id="outer-layer" fill="#64D600"></path>
                <g id="inner-background">
                    <use fill="#23272D" fill-rule="evenodd" xlink:href="#path-2"></use>
                    <use fill="black" fill-opacity="1" filter="url(#filter-3)" xlink:href="#path-2"></use>
                </g>
                <polygon id="Path-1445" fill="url(#linearGradient-4)" points="82.7914395 88.7170575 82.4914517 103.817064 86.9914517 104.840463 78.4914517 123.217058 99.9914517 128.817064 105.991452 101.317064"></polygon>
                <polygon id="Path-1446" fill="url(#linearGradient-5)" points="82.9914517 70.8170636 81.9914517 54.8170636 87.9914517 54.8170636 78.4914517 35.8170636 99.4914517 49.8170636 90.9914517 74.3170636"></polygon>
                <g id="Cisco-router" transform="translate(32.658112, 35.343272)" fill="#FFFFFF">
                    <g id="Group" transform="translate(35.948389, 0.178920)">
                        <rect id="Rectangle-73" x="5.15354595" y="17.4238934" width="9.08005714" height="17.9147073"></rect>
                        <polygon id="Triangle-1" points="9.81627799 0.150903864 19.632556 19.7834598 0 19.7834598"></polygon>
                    </g>
                    <g id="Group-Copy" transform="translate(45.948389, 70.180704) scale(1, -1) translate(-45.948389, -70.180704) translate(35.948389, 52.180704)">
                        <rect id="Rectangle-73" x="5.15354595" y="17.4238934" width="9.08005714" height="17.9147073"></rect>
                        <polygon id="Triangle-1" points="9.81627799 0.150903864 19.632556 19.7834598 0 19.7834598"></polygon>
                    </g>
                    <g id="Group-Copy-3" transform="translate(73.323636, 44.946888) rotate(90.000000) translate(-73.323636, -44.946888) translate(63.323636, 26.946888)">
                        <rect id="Rectangle-73" x="5.15354595" y="17.4238934" width="9.08005714" height="17.9147073"></rect>
                        <polygon id="Triangle-1" points="9.81627799 0.150903864 19.632556 19.7834598 1.95399252e-14 19.7834598"></polygon>
                    </g>
                    <g id="Group-Copy-4" transform="translate(18.251949, 44.946888) scale(-1, 1) rotate(90.000000) translate(-18.251949, -44.946888) translate(8.251949, 26.946888)">
                        <rect id="Rectangle-73" x="5.15354595" y="17.4238934" width="9.08005714" height="17.9147073"></rect>
                        <polygon id="Triangle-1" points="9.81627799 0.150903864 19.632556 19.7834598 -7.10542736e-15 19.7834598"></polygon>
                    </g>
                </g>
            </g>
        </g>
    </g>
</svg>