<?xml version="1.0" encoding="UTF-8"?>
<svg width="175px" height="177px" viewBox="0 0 175 177" version="1.1" xmlns="http://www.w3.org/2000/svg" xmlns:xlink="http://www.w3.org/1999/xlink">
    <!-- Generator: Sketch 39.1 (31720) - http://www.bohemiancoding.com/sketch -->
    <title>temprature copy</title>
    <desc>Created with Sketch.</desc>
    <defs>
        <filter x="-50%" y="-50%" width="200%" height="200%" filterUnits="objectBoundingBox" id="filter-1">
            <feOffset dx="0" dy="0" in="SourceAlpha" result="shadowOffsetOuter1"></feOffset>
            <feGaussianBlur stdDeviation="4.5" in="shadowOffsetOuter1" result="shadowBlurOuter1"></feGaussianBlur>
            <feColorMatrix values="0 0 0 0 0.392156863   0 0 0 0 0.839215686   0 0 0 0 0  0 0 0 1 0" parserType="matrix" in="shadowBlurOuter1" result="shadowMatrixOuter1"></feColorMatrix>
            <feMerge>
                <feMergeNode in="shadowMatrixOuter1"></feMergeNode>
                <feMergeNode in="SourceGraphic"></feMergeNode>
            </feMerge>
        </filter>
        <path d="M78.8270955,155.984649 C37.0676278,155.984649 3.21445936,121.915856 3.21445936,79.890404 C3.21445936,37.8639785 37.0676278,3.79615878 78.8270955,3.79615878 C120.586563,3.79615878 154.439732,37.8639785 154.439732,79.890404 C154.439732,121.915856 120.586563,155.984649 78.8270955,155.984649 Z" id="path-2"></path>
        <filter x="-50%" y="-50%" width="200%" height="200%" filterUnits="objectBoundingBox" id="filter-3">
            <feGaussianBlur stdDeviation="2.5" in="SourceAlpha" result="shadowBlurInner1"></feGaussianBlur>
            <feOffset dx="0" dy="0" in="shadowBlurInner1" result="shadowOffsetInner1"></feOffset>
            <feComposite in="shadowOffsetInner1" in2="SourceAlpha" operator="arithmetic" k2="-1" k3="1" result="shadowInnerInner1"></feComposite>
            <feColorMatrix values="0 0 0 0 0   0 0 0 0 0   0 0 0 0 0  0 0 0 0.5 0" parserType="matrix" in="shadowInnerInner1"></feColorMatrix>
        </filter>
        <linearGradient x1="100%" y1="64.327968%" x2="22.5992253%" y2="35.639232%" id="linearGradient-4">
            <stop stop-color="#515151" offset="0%"></stop>
            <stop stop-color="#DDDFE0" offset="100%"></stop>
        </linearGradient>
        <path d="M26.3087923,58.4344861 C30.2555309,61.4297968 32.8043424,66.1712987 32.8043424,71.5081074 C32.8043424,80.5667764 25.4608402,87.9102786 16.4021712,87.9102786 C7.34350219,87.9102786 0,80.5667764 0,71.5081074 C0,66.1712987 2.5488115,61.4297968 6.4955501,58.4344861 L6.4955501,5.34109891 C16.4021712,-6.56812628 26.3087923,5.34109891 26.3087923,5.34109891 L26.3087923,58.4344861 Z" id="path-5"></path>
        <filter x="-50%" y="-50%" width="200%" height="200%" filterUnits="objectBoundingBox" id="filter-6">
            <feGaussianBlur stdDeviation="5.5" in="SourceAlpha" result="shadowBlurInner1"></feGaussianBlur>
            <feOffset dx="0" dy="0" in="shadowBlurInner1" result="shadowOffsetInner1"></feOffset>
            <feComposite in="shadowOffsetInner1" in2="SourceAlpha" operator="arithmetic" k2="-1" k3="1" result="shadowInnerInner1"></feComposite>
            <feColorMatrix values="0 0 0 0 0.468563988   0 0 0 0 0   0 0 0 0 0  0 0 0 0.5 0" parserType="matrix" in="shadowInnerInner1"></feColorMatrix>
        </filter>
        <path d="M9.0938239,60.396103 C5.34762436,62.8036128 2.86594904,67.0079 2.86594904,71.7918136 C2.86594904,79.2676627 8.92632213,85.3280358 16.4021712,85.3280358 L16.4021712,85.3280358 C23.8780203,85.3280358 29.9383934,79.2676627 29.9383934,71.7918136 C29.9383934,67.1060388 27.5574935,62.976353 23.9394638,60.5465263" id="path-7"></path>
        <filter x="-50%" y="-50%" width="200%" height="200%" filterUnits="objectBoundingBox" id="filter-8">
            <feGaussianBlur stdDeviation="3" in="SourceAlpha" result="shadowBlurInner1"></feGaussianBlur>
            <feOffset dx="0" dy="-2" in="shadowBlurInner1" result="shadowOffsetInner1"></feOffset>
            <feComposite in="shadowOffsetInner1" in2="SourceAlpha" operator="arithmetic" k2="-1" k3="1" result="shadowInnerInner1"></feComposite>
            <feColorMatrix values="0 0 0 0 0.267591412   0 0 0 0 0.258500652   0 0 0 0 0.258500652  0 0 0 0.5 0" parserType="matrix" in="shadowInnerInner1"></feColorMatrix>
        </filter>
    </defs>
    <g id="Page-1" stroke="none" stroke-width="1" fill="none" fill-rule="evenodd">
        <g id="1000-X-1000-Copy-2" transform="translate(-4973.000000, -1650.000000)">
            <g id="temprature-copy" filter="url(#filter-1)" transform="translate(4981.600966, 1658.947792)">
                <path d="M157.461898,79.890404 C157.461898,123.595573 122.25565,159.026065 78.8270955,159.026065 C35.3985411,159.026065 0.192293319,123.595573 0.192293319,79.890404 C0.192293319,36.1842218 35.3985411,0.75474327 78.8270955,0.75474327 C122.25565,0.75474327 157.461898,36.1842218 157.461898,79.890404" id="outer-layer" fill="#64D600"></path>
                <g id="inner-background">
                    <use fill="#393939" fill-rule="evenodd" xlink:href="#path-2"></use>
                    <use fill="black" fill-opacity="1" filter="url(#filter-3)" xlink:href="#path-2"></use>
                </g>
                <path d="M153.96859,88.4327528 L84.5042742,34.0444835 L87.0042742,107.963652 L63.0042742,118.544486 L109.429488,149.494627 C133.478495,138.770129 150.931422,115.793009 153.96859,88.4327528 Z" id="Combined-Shape" fill="url(#linearGradient-4)"></path>
                <g id="Group" transform="translate(62.374701, 35.665870)">
                    <g id="Combined-Shape">
                        <use fill="#FFFFFF" fill-rule="evenodd" xlink:href="#path-5"></use>
                        <use fill="black" fill-opacity="1" filter="url(#filter-6)" xlink:href="#path-5"></use>
                        <use stroke="#FFFFFF" stroke-width="6" xlink:href="#path-5"></use>
                    </g>
                    <g id="Oval-16">
                        <use fill="#CA2A2A" fill-rule="evenodd" xlink:href="#path-7"></use>
                        <use fill="black" fill-opacity="1" filter="url(#filter-8)" xlink:href="#path-7"></use>
                    </g>
                </g>
            </g>
        </g>
    </g>
</svg>