<?xml version="1.0" encoding="UTF-8"?>
<svg width="244px" height="245px" viewBox="0 0 244 245" version="1.1" xmlns="http://www.w3.org/2000/svg" xmlns:xlink="http://www.w3.org/1999/xlink">
    <!-- Generator: Sketch 39.1 (31720) - http://www.bohemiancoding.com/sketch -->
    <title>server windows</title>
    <desc>Created with Sketch.</desc>
    <defs>
        <filter x="-50%" y="-50%" width="200%" height="200%" filterUnits="objectBoundingBox" id="filter-1">
            <feOffset dx="1" dy="0" in="SourceAlpha" result="shadowOffsetOuter1"></feOffset>
            <feGaussianBlur stdDeviation="6.5" in="shadowOffsetOuter1" result="shadowBlurOuter1"></feGaussianBlur>
            <feColorMatrix values="0 0 0 0 0.392156863   0 0 0 0 0.839215686   0 0 0 0 0  0 0 0 1 0" parserType="matrix" in="shadowBlurOuter1" result="shadowMatrixOuter1"></feColorMatrix>
            <feMerge>
                <feMergeNode in="shadowMatrixOuter1"></feMergeNode>
                <feMergeNode in="SourceGraphic"></feMergeNode>
            </feMerge>
        </filter>
        <filter x="-50%" y="-50%" width="200%" height="200%" filterUnits="objectBoundingBox" id="filter-2">
            <feOffset dx="0" dy="0" in="SourceAlpha" result="shadowOffsetOuter1"></feOffset>
            <feGaussianBlur stdDeviation="5.5" in="shadowOffsetOuter1" result="shadowBlurOuter1"></feGaussianBlur>
            <feColorMatrix values="0 0 0 0 0.516573113   0 0 0 0 0.935081845   0 0 0 0 0.181766127  0 0 0 1 0" parserType="matrix" in="shadowBlurOuter1" result="shadowMatrixOuter1"></feColorMatrix>
            <feMerge>
                <feMergeNode in="shadowMatrixOuter1"></feMergeNode>
                <feMergeNode in="SourceGraphic"></feMergeNode>
            </feMerge>
        </filter>
        <path d="M203.016181,102.612342 C203.016181,158.967301 157.598316,204.652605 101.576155,204.652605 C45.5500977,204.652605 0.136128294,158.967301 0.136128294,102.612342 C0.136128294,46.2560757 45.5500977,0.572078531 101.576155,0.572078531 C157.598316,0.572078531 203.016181,46.2560757 203.016181,102.612342" id="path-3"></path>
        <filter x="-50%" y="-50%" width="200%" height="200%" filterUnits="objectBoundingBox" id="filter-4">
            <feGaussianBlur stdDeviation="8" in="SourceAlpha" result="shadowBlurInner1"></feGaussianBlur>
            <feOffset dx="0" dy="4" in="shadowBlurInner1" result="shadowOffsetInner1"></feOffset>
            <feComposite in="shadowOffsetInner1" in2="SourceAlpha" operator="arithmetic" k2="-1" k3="1" result="shadowInnerInner1"></feComposite>
            <feColorMatrix values="0 0 0 0 0   0 0 0 0 0   0 0 0 0 0  0 0 0 0.5 0" parserType="matrix" in="shadowInnerInner1"></feColorMatrix>
        </filter>
        <path d="M191.91649,102.612342 C191.91649,152.800873 151.468303,193.487235 101.576155,193.487235 C51.6805367,193.487235 11.2358189,152.800873 11.2358189,102.612342 C11.2358189,52.4226466 51.6805367,11.7374477 101.576155,11.7374477 C151.468303,11.7374477 191.91649,52.4226466 191.91649,102.612342" id="path-5"></path>
        <filter x="-50%" y="-50%" width="200%" height="200%" filterUnits="objectBoundingBox" id="filter-6">
            <feGaussianBlur stdDeviation="8" in="SourceAlpha" result="shadowBlurInner1"></feGaussianBlur>
            <feOffset dx="0" dy="4" in="shadowBlurInner1" result="shadowOffsetInner1"></feOffset>
            <feComposite in="shadowOffsetInner1" in2="SourceAlpha" operator="arithmetic" k2="-1" k3="1" result="shadowInnerInner1"></feComposite>
            <feColorMatrix values="0 0 0 0 0   0 0 0 0 0   0 0 0 0 0  0 0 0 0.5 0" parserType="matrix" in="shadowInnerInner1"></feColorMatrix>
        </filter>
        <linearGradient x1="89.3677366%" y1="80.065514%" x2="33.4407183%" y2="33.0004198%" id="linearGradient-7">
            <stop stop-color="#393939" stop-opacity="0.531759511" offset="0%"></stop>
            <stop stop-color="#F9F9F9" stop-opacity="0.668393342" offset="100%"></stop>
        </linearGradient>
        <path d="M13.2453083,50.8170306 C6.29479996,50.8170306 0.67258795,56.4803468 0.67258795,63.4654518 C0.67258795,70.4518629 6.29479996,76.1164853 13.2453083,76.1164853 L88.0298171,76.1164853 C94.9829222,76.1164853 100.605134,70.4518629 100.605134,63.4654518 C100.605134,56.4803468 94.9829222,50.8170306 88.0298171,50.8170306" id="path-8"></path>
        <filter x="-50%" y="-50%" width="200%" height="200%" filterUnits="objectBoundingBox" id="filter-9">
            <feGaussianBlur stdDeviation="2" in="SourceAlpha" result="shadowBlurInner1"></feGaussianBlur>
            <feOffset dx="0" dy="1" in="shadowBlurInner1" result="shadowOffsetInner1"></feOffset>
            <feComposite in="shadowOffsetInner1" in2="SourceAlpha" operator="arithmetic" k2="-1" k3="1" result="shadowInnerInner1"></feComposite>
            <feColorMatrix values="0 0 0 0 0.223529412   0 0 0 0 0.223529412   0 0 0 0 0.223529412  0 0 0 1 0" parserType="matrix" in="shadowInnerInner1"></feColorMatrix>
        </filter>
        <path d="M88.0298171,25.4979842 C94.9829222,25.4979842 100.605134,19.8359741 100.605134,12.8534813 C100.605134,5.86837635 94.9829222,0.203753997 88.0298171,0.203753997 L13.2453083,0.203753997 C6.29479996,0.203753997 0.67258795,5.86837635 0.67258795,12.8534813 C0.67258795,19.8359741 6.29479996,25.4979842 13.2453083,25.4979842" id="path-10"></path>
        <filter x="-50%" y="-50%" width="200%" height="200%" filterUnits="objectBoundingBox" id="filter-11">
            <feGaussianBlur stdDeviation="2" in="SourceAlpha" result="shadowBlurInner1"></feGaussianBlur>
            <feOffset dx="0" dy="1" in="shadowBlurInner1" result="shadowOffsetInner1"></feOffset>
            <feComposite in="shadowOffsetInner1" in2="SourceAlpha" operator="arithmetic" k2="-1" k3="1" result="shadowInnerInner1"></feComposite>
            <feColorMatrix values="0 0 0 0 0.223529412   0 0 0 0 0.223529412   0 0 0 0 0.223529412  0 0 0 1 0" parserType="matrix" in="shadowInnerInner1"></feColorMatrix>
        </filter>
        <path d="M88.0298171,25.5110454 L13.2453083,25.5110454 C6.29479996,25.5110454 0.67258795,31.1769738 0.67258795,38.164691 C0.67258795,45.149796 6.29479996,50.8091939 13.2453083,50.8091939 L88.0298171,50.8091939 C94.9829222,50.8091939 100.605134,45.149796 100.605134,38.164691 C100.605134,31.1769738 94.9829222,25.5110454 88.0298171,25.5110454" id="path-12"></path>
        <filter x="-50%" y="-50%" width="200%" height="200%" filterUnits="objectBoundingBox" id="filter-13">
            <feGaussianBlur stdDeviation="2" in="SourceAlpha" result="shadowBlurInner1"></feGaussianBlur>
            <feOffset dx="0" dy="1" in="shadowBlurInner1" result="shadowOffsetInner1"></feOffset>
            <feComposite in="shadowOffsetInner1" in2="SourceAlpha" operator="arithmetic" k2="-1" k3="1" result="shadowInnerInner1"></feComposite>
            <feColorMatrix values="0 0 0 0 0.223529412   0 0 0 0 0.223529412   0 0 0 0 0.223529412  0 0 0 1 0" parserType="matrix" in="shadowInnerInner1"></feColorMatrix>
        </filter>
        <path d="M13.2453083,50.8170306 C6.29479996,50.8170306 0.67258795,56.4803468 0.67258795,63.4654518 C0.67258795,70.4518629 6.29479996,76.1164853 13.2453083,76.1164853 L88.0298171,76.1164853 C94.9829222,76.1164853 100.605134,70.4518629 100.605134,63.4654518 C100.605134,56.4803468 94.9829222,50.8170306 88.0298171,50.8170306" id="path-14"></path>
        <filter x="-50%" y="-50%" width="200%" height="200%" filterUnits="objectBoundingBox" id="filter-15">
            <feGaussianBlur stdDeviation="3.5" in="SourceAlpha" result="shadowBlurInner1"></feGaussianBlur>
            <feOffset dx="0" dy="2" in="shadowBlurInner1" result="shadowOffsetInner1"></feOffset>
            <feComposite in="shadowOffsetInner1" in2="SourceAlpha" operator="arithmetic" k2="-1" k3="1" result="shadowInnerInner1"></feComposite>
            <feColorMatrix values="0 0 0 0 1   0 0 0 0 1   0 0 0 0 1  0 0 0 0.989583333 0" parserType="matrix" in="shadowInnerInner1"></feColorMatrix>
        </filter>
        <path d="M88.0298171,25.4979842 C94.9829222,25.4979842 100.605134,19.8359741 100.605134,12.8534813 C100.605134,5.86837635 94.9829222,0.203753997 88.0298171,0.203753997 L13.2453083,0.203753997 C6.29479996,0.203753997 0.67258795,5.86837635 0.67258795,12.8534813 C0.67258795,19.8359741 6.29479996,25.4979842 13.2453083,25.4979842" id="path-16"></path>
        <filter x="-50%" y="-50%" width="200%" height="200%" filterUnits="objectBoundingBox" id="filter-17">
            <feGaussianBlur stdDeviation="3.5" in="SourceAlpha" result="shadowBlurInner1"></feGaussianBlur>
            <feOffset dx="0" dy="2" in="shadowBlurInner1" result="shadowOffsetInner1"></feOffset>
            <feComposite in="shadowOffsetInner1" in2="SourceAlpha" operator="arithmetic" k2="-1" k3="1" result="shadowInnerInner1"></feComposite>
            <feColorMatrix values="0 0 0 0 1   0 0 0 0 1   0 0 0 0 1  0 0 0 0.989583333 0" parserType="matrix" in="shadowInnerInner1"></feColorMatrix>
        </filter>
        <path d="M88.0298171,25.5110454 L13.2453083,25.5110454 C6.29479996,25.5110454 0.67258795,31.1769738 0.67258795,38.164691 C0.67258795,45.149796 6.29479996,50.8091939 13.2453083,50.8091939 L88.0298171,50.8091939 C94.9829222,50.8091939 100.605134,45.149796 100.605134,38.164691 C100.605134,31.1769738 94.9829222,25.5110454 88.0298171,25.5110454 L88.0298171,25.5110454 Z" id="path-18"></path>
        <filter x="-50%" y="-50%" width="200%" height="200%" filterUnits="objectBoundingBox" id="filter-19">
            <feGaussianBlur stdDeviation="3.5" in="SourceAlpha" result="shadowBlurInner1"></feGaussianBlur>
            <feOffset dx="0" dy="2" in="shadowBlurInner1" result="shadowOffsetInner1"></feOffset>
            <feComposite in="shadowOffsetInner1" in2="SourceAlpha" operator="arithmetic" k2="-1" k3="1" result="shadowInnerInner1"></feComposite>
            <feColorMatrix values="0 0 0 0 1   0 0 0 0 1   0 0 0 0 1  0 0 0 0.989583333 0" parserType="matrix" in="shadowInnerInner1"></feColorMatrix>
        </filter>
        <path d="M119.905244,83.2443007 C119.905244,97.4844632 108.423098,109.03455 94.2786579,109.03455 C80.1222611,109.03455 68.6401159,97.4844632 68.6401159,83.2443007 C68.6401159,69.000129 80.1222611,57.4620694 94.2786579,57.4620694 C108.423098,57.4620694 119.905244,69.000129 119.905244,83.2443007" id="path-20"></path>
        <filter x="-50%" y="-50%" width="200%" height="200%" filterUnits="objectBoundingBox" id="filter-21">
            <feGaussianBlur stdDeviation="2" in="SourceAlpha" result="shadowBlurInner1"></feGaussianBlur>
            <feOffset dx="0" dy="1" in="shadowBlurInner1" result="shadowOffsetInner1"></feOffset>
            <feComposite in="shadowOffsetInner1" in2="SourceAlpha" operator="arithmetic" k2="-1" k3="1" result="shadowInnerInner1"></feComposite>
            <feColorMatrix values="0 0 0 0 0.207843137   0 0 0 0 0.207843137   0 0 0 0 0.207843137  0 0 0 1 0" parserType="matrix" in="shadowInnerInner1"></feColorMatrix>
        </filter>
    </defs>
    <g id="Page-1" stroke="none" stroke-width="1" fill="none" fill-rule="evenodd">
        <g id="1000-X-1000-Copy-2" transform="translate(-1631.000000, -1594.000000)">
            <g id="server-windows" transform="translate(1649.787568, 1612.947792)">
                <g id="Group-3-Copy-14" filter="url(#filter-1)" transform="translate(0.088665, 0.000000)">
                    <g id="Group-2-Copy" filter="url(#filter-2)" transform="translate(0.574975, 0.977258)">
                        <g id="Fill-79">
                            <use fill="#393939" fill-rule="evenodd" xlink:href="#path-3"></use>
                            <use fill="black" fill-opacity="1" filter="url(#filter-4)" xlink:href="#path-3"></use>
                        </g>
                        <g id="Fill-79-Copy-2">
                            <use fill="#393939" fill-rule="evenodd" xlink:href="#path-5"></use>
                            <use fill="black" fill-opacity="1" filter="url(#filter-6)" xlink:href="#path-5"></use>
                        </g>
                        <path d="M203.014161,101.961553 L148.317754,50.4877583 L64.3731351,52.8976724 L55.8177543,122.987761 L93.7971893,148.620052 C93.7971893,148.620052 121.027086,148.358068 106.297189,148.244091 C91.5672927,148.130113 56.7971901,149.120052 56.7971901,149.120052 L119.249129,203.1093 C166.846764,194.69718 203.016181,152.903257 203.016181,102.612342 C203.016181,102.395253 203.015507,102.178323 203.014161,101.961553 Z" id="Combined-Shape" fill="url(#linearGradient-7)"></path>
                        <g id="Group" transform="translate(50.937293, 48.326269)">
                            <g id="Fill-80">
                                <use fill="#FFFFFF" fill-rule="evenodd" xlink:href="#path-8"></use>
                                <use fill="black" fill-opacity="1" filter="url(#filter-9)" xlink:href="#path-8"></use>
                            </g>
                            <g id="Fill-82">
                                <use fill="#FFFFFF" fill-rule="evenodd" xlink:href="#path-10"></use>
                                <use fill="black" fill-opacity="1" filter="url(#filter-11)" xlink:href="#path-10"></use>
                            </g>
                            <g id="Fill-84">
                                <use fill="#FFFFFF" fill-rule="evenodd" xlink:href="#path-12"></use>
                                <use fill="black" fill-opacity="1" filter="url(#filter-13)" xlink:href="#path-12"></use>
                            </g>
                            <g id="Stroke-81">
                                <use fill="black" fill-opacity="1" filter="url(#filter-15)" xlink:href="#path-14"></use>
                                <use stroke="#FFFFFE" stroke-width="3.125" stroke-linecap="round" stroke-linejoin="round" xlink:href="#path-14"></use>
                            </g>
                            <g id="Stroke-83">
                                <use fill="black" fill-opacity="1" filter="url(#filter-17)" xlink:href="#path-16"></use>
                                <use stroke="#FFFFFE" stroke-width="3.125" stroke-linecap="round" stroke-linejoin="round" xlink:href="#path-16"></use>
                            </g>
                            <g id="Stroke-85">
                                <use fill="black" fill-opacity="1" filter="url(#filter-19)" xlink:href="#path-18"></use>
                                <use stroke="#FFFFFE" stroke-width="3.125" stroke-linecap="round" stroke-linejoin="round" xlink:href="#path-18"></use>
                            </g>
                            <path d="M50.6388611,77.8710826 L50.6388611,90.0179555 M58.9163672,100.016269 L94.2726797,100.016269 M6.99984872,100.016269 L42.3574597,100.016269" id="Stroke-86" stroke="#FFFFFF" stroke-width="3.125" stroke-linecap="round" stroke-linejoin="round"></path>
                            <path d="M89.8593082,12.4485856 C89.8593082,14.7003285 88.0453983,16.5301961 85.8017072,16.5301961 C83.5593145,16.5301961 81.7441061,14.7003285 81.7441061,12.4485856 C81.7441061,10.1955366 83.5593145,8.36697504 85.8017072,8.36697504 C88.0453983,8.36697504 89.8593082,10.1955366 89.8593082,12.4485856" id="Fill-89" fill="#393939"></path>
                            <path d="M89.8593082,38.2143234 C89.8593082,40.4660663 88.0453983,42.2959339 85.8017072,42.2959339 C83.5593145,42.2959339 81.7441061,40.4660663 81.7441061,38.2143234 C81.7441061,35.9599683 83.5593145,34.1327129 85.8017072,34.1327129 C88.0453983,34.1327129 89.8593082,35.9599683 89.8593082,38.2143234" id="Fill-90" fill="#393939"></path>
                            <path d="M89.8593082,63.9787552 C89.8593082,66.230498 88.0453983,68.0603657 85.8017072,68.0603657 C83.5593145,68.0603657 81.7441061,66.230498 81.7441061,63.9787552 C81.7441061,61.7270123 83.5593145,59.8971446 85.8017072,59.8971446 C88.0453983,59.8971446 89.8593082,61.7270123 89.8593082,63.9787552" id="Fill-91" fill="#393939"></path>
                            <path d="M12.7648883,12.8508691 L74.9844674,12.8508691 M12.7648883,38.6701577 L74.9844674,38.6701577 M12.7648883,64.4894463 L74.9844674,64.4894463" id="Stroke-92" stroke="#393939" stroke-width="3.125" stroke-linecap="round" stroke-linejoin="round"></path>
                            <g id="Fill-87">
                                <use fill="#FFFFFF" fill-rule="evenodd" xlink:href="#path-20"></use>
                                <use fill="black" fill-opacity="1" filter="url(#filter-21)" xlink:href="#path-20"></use>
                                <use stroke="#FFFFFF" stroke-width="3" xlink:href="#path-20"></use>
                            </g>
                            <path d="M59.2779806,100.014963 C59.2779806,104.654284 55.5371971,108.417203 50.9290607,108.417203 C46.3170291,108.417203 42.5762455,104.654284 42.5762455,100.014963 C42.5762455,95.3743346 46.3170291,91.6153346 50.9290607,91.6153346 C55.5371971,91.6153346 59.2779806,95.3743346 59.2779806,100.014963" id="Fill-87" fill="#E36851"></path>
                            <path d="M59.2779806,100.014963 C59.2779806,104.654284 55.5371971,108.417203 50.9290607,108.417203 C46.3170291,108.417203 42.5762455,104.654284 42.5762455,100.014963 C42.5762455,95.3743346 46.3170291,91.6153346 50.9290607,91.6153346 C55.5371971,91.6153346 59.2779806,95.3743346 59.2779806,100.014963 L59.2779806,100.014963 Z" id="Stroke-88" stroke="#3E4348" stroke-width="3.125" stroke-linecap="round" stroke-linejoin="round"></path>
                        </g>
                    </g>
                </g>
                <g id="windows-store" transform="translate(130.962402, 117.798610)" fill="#3E4348">
                    <g id="Windows_Store">
                        <path d="M13.600062,2.33998044 L13.600062,14.1413861 L28.9096714,14.1413861 L28.9096714,0 L13.600062,2.33998044 L13.600062,2.33998044 Z M0.0915831709,14.1413861 L11.7989315,14.1413861 L11.7989315,2.61525874 L0.0915831709,4.40456757 L0.0915831709,14.1413861 L0.0915831709,14.1413861 Z M13.600062,27.82831 L28.9096714,30.1682904 L28.9096714,16.0269043 L13.600062,16.0269043 L13.600062,27.82831 L13.600062,27.82831 Z M0.0915831709,25.7637228 L11.7989315,27.5530317 L11.7989315,16.0269043 L0.0915831709,16.0269043 L0.0915831709,25.7637228 L0.0915831709,25.7637228 Z" id="Shape"></path>
                    </g>
                </g>
            </g>
        </g>
    </g>
</svg>